<svg width="28" height="25" viewBox="0 0 28 25" fill="none" xmlns="http://www.w3.org/2000/svg">
<path d="M8.45609 4.11726H7.28003V14.4058H8.45609L13.1264 21.9957C13.558 22.6972 14.3568 23.1295 15.2214 23.1295C16.69 23.1295 17.8196 21.9133 17.6161 20.551L17.1658 17.5356H20.9875C22.6583 17.5356 26 15.9707 26 12.8409C26 9.71111 22.64 2.55237 19.0857 2.55237C14.4074 2.55237 10.4054 3.59563 8.45609 4.11726Z" fill="white" stroke="#4147D5" stroke-width="3.66775" stroke-linecap="round" stroke-linejoin="round"/>
<path d="M2 14.8126C2 16.1781 3.18197 17.2852 4.64 17.2852C6.09803 17.2852 7.28 16.1781 7.28 14.8126V4.4726C7.28 3.10702 6.09803 2 4.64 2C3.18197 2 2 3.10702 2 4.4726V14.8126Z" fill="#D7E0FF" stroke="#4147D5" stroke-width="3.66775" stroke-linejoin="round"/>
</svg>
