<svg width="30" height="25" viewBox="0 0 30 25" fill="none" xmlns="http://www.w3.org/2000/svg">
<path d="M9.19991 4.11726H7.99268V14.4058H9.19991L13.994 21.9957C14.4371 22.6972 15.2571 23.1295 16.1445 23.1295C17.6521 23.1295 18.8116 21.9133 18.6028 20.551L18.1405 17.5356H22.0635C23.7786 17.5356 27.2089 15.9707 27.2089 12.8409C27.2089 9.71111 23.7599 2.55237 20.1113 2.55237C15.309 2.55237 11.2009 3.59563 9.19991 4.11726Z" fill="white" stroke="#4147D5" stroke-width="3.66775" stroke-linecap="round" stroke-linejoin="round"/>
<path d="M2.57227 14.8126C2.57227 16.1781 3.78557 17.2852 5.28225 17.2852C6.77893 17.2852 7.99224 16.1781 7.99224 14.8126V4.4726C7.99224 3.10702 6.77893 2 5.28225 2C3.78557 2 2.57227 3.10702 2.57227 4.4726V14.8126Z" fill="#D7E0FF" stroke="#4147D5" stroke-width="3.66775" stroke-linejoin="round"/>
</svg>
