<svg width="60" height="50" viewBox="0 0 60 50" fill="none" xmlns="http://www.w3.org/2000/svg">
<path d="M59.1696 27.2118L39.1686 49.0832C37.3828 51.036 34.2874 49.669 34.2874 46.87V34.3721H18.0961C16.5127 34.3721 15.2389 32.9791 15.2389 31.2476V18.7497C15.2389 17.0182 16.5127 15.6252 18.0961 15.6252H34.2874V3.12725C34.2874 0.341254 37.3709 -1.03872 39.1686 0.914076L59.1696 22.7854C60.2768 24.0092 60.2768 25.988 59.1696 27.2118ZM22.8583 48.4322V43.2248C22.8583 42.3655 22.2154 41.6625 21.4296 41.6625H11.4291C9.32189 41.6625 7.61943 39.8008 7.61943 37.4965V12.5007C7.61943 10.1964 9.32189 8.33472 11.4291 8.33472H21.4296C22.2154 8.33472 22.8583 7.63171 22.8583 6.77248V1.56501C22.8583 0.705777 22.2154 0.00276889 21.4296 0.00276889H11.4291C5.1193 0.00276889 0 5.6008 0 12.5007V37.4965C0 44.3964 5.1193 49.9945 11.4291 49.9945H21.4296C22.2154 49.9945 22.8583 49.2915 22.8583 48.4322Z" fill="black"/>
</svg>
