<svg width="24" height="24" viewBox="0 0 24 24" fill="none" xmlns="http://www.w3.org/2000/svg">
<path d="M19.3644 15.1962C20.0591 15.1233 20.6964 14.7774 21.1361 14.2345C21.5758 13.6917 21.7818 12.9965 21.7089 12.3017V7.95994C21.7089 5.31869 20.5801 2.1709 15.1962 2.1709H1.44727V12.3017H6.12192L8.68357 16.1876L9.4072 20.7754V20.8623C9.46159 21.0981 9.59271 21.3091 9.77999 21.4623C9.96727 21.6156 10.2001 21.7023 10.442 21.7089H11.5781C11.7608 21.7306 11.9454 21.7306 12.1281 21.7089C12.8228 21.636 13.4601 21.29 13.8998 20.7472C14.3395 20.2044 14.5455 19.5091 14.4726 18.8144V15.1962H18.8144C18.9971 15.218 19.1817 15.218 19.3644 15.1962ZM5.78905 10.8545H2.89453V3.61816H5.78905V10.8545ZM20.2617 12.3017C20.2617 13.3438 19.8564 13.749 18.8144 13.749H13.0254V18.8144C13.0254 19.8564 12.6201 20.2617 11.5781 20.2617H10.7604L10.6591 19.538L10.1308 15.6521L7.23631 11.361V3.61816H15.1962C18.6552 3.61816 20.2617 5.00029 20.2617 7.95994V12.3017Z" fill="black"/>
</svg>
