<svg width="23" height="21" viewBox="0 0 23 21" fill="none" xmlns="http://www.w3.org/2000/svg">
<path d="M7.43765 3.70351H6.53223V11.9813H7.43765L11.0332 18.0878C11.3656 18.6522 11.9805 19 12.6461 19C13.7768 19 14.6464 18.0215 14.4898 16.9254L14.1431 14.4994H17.0854C18.3717 14.4994 20.9444 13.2404 20.9444 10.7222C20.9444 8.20412 18.3576 2.44446 15.6212 2.44446C12.0195 2.44446 8.93841 3.28382 7.43765 3.70351Z" fill="white" stroke="#4147D5" stroke-width="3.66775" stroke-linecap="round" stroke-linejoin="round"/>
<path d="M2.46729 12.3085C2.46729 13.4072 3.37726 14.2979 4.49977 14.2979C5.62228 14.2979 6.53226 13.4072 6.53226 12.3085V3.98936C6.53226 2.89067 5.62228 2 4.49977 2C3.37726 2 2.46729 2.89067 2.46729 3.98936V12.3085Z" fill="#D7E0FF" stroke="#4147D5" stroke-width="3.66775" stroke-linejoin="round"/>
</svg>
