<svg width="22" height="21" viewBox="0 0 22 21" fill="none" xmlns="http://www.w3.org/2000/svg">
<path d="M6.842 3.70351H5.95996V11.9813H6.842L10.3447 18.0878C10.6685 18.6522 11.2676 19 11.916 19C13.0175 19 13.8646 18.0215 13.712 16.9254L13.3743 14.4994H16.2406C17.4936 14.4994 20 13.2404 20 10.7222C20 8.20412 17.48 2.44446 14.8142 2.44446C11.3055 2.44446 8.30401 3.28382 6.842 3.70351Z" fill="white" stroke="#4147D5" stroke-width="3.66775" stroke-linecap="round" stroke-linejoin="round"/>
<path d="M2 12.3085C2 13.4072 2.88648 14.2979 3.98 14.2979C5.07352 14.2979 5.96 13.4072 5.96 12.3085V3.98936C5.96 2.89067 5.07352 2 3.98 2C2.88648 2 2 2.89067 2 3.98936V12.3085Z" fill="#D7E0FF" stroke="#4147D5" stroke-width="3.66775" stroke-linejoin="round"/>
</svg>
