<svg width="60" height="50" viewBox="0 0 60 50" fill="none" xmlns="http://www.w3.org/2000/svg">
<path d="M30 31.6667C34.4183 31.6667 38 28.6819 38 25C38 21.3181 34.4183 18.3334 30 18.3334C25.5817 18.3334 22 21.3181 22 25C22 28.6819 25.5817 31.6667 30 31.6667Z" fill="black"/>
<path d="M22.5 4.16669L17.925 8.33335H10C7.25 8.33335 5 10.2084 5 12.5V37.5C5 39.7917 7.25 41.6667 10 41.6667H50C52.75 41.6667 55 39.7917 55 37.5V12.5C55 10.2084 52.75 8.33335 50 8.33335H42.075L37.5 4.16669H22.5ZM30 35.4167C23.1 35.4167 17.5 30.75 17.5 25C17.5 19.25 23.1 14.5834 30 14.5834C36.9 14.5834 42.5 19.25 42.5 25C42.5 30.75 36.9 35.4167 30 35.4167Z" fill="black"/>
</svg>
