<svg width="32" height="32" viewBox="0 0 32 32" fill="none" xmlns="http://www.w3.org/2000/svg">
<path d="M1.41097 0.102147L31.4539 15.1104C31.9386 15.3525 32.1378 15.9471 31.899 16.4384C31.8037 16.6345 31.6473 16.7931 31.4539 16.8897L1.41159 31.8976C0.926928 32.1398 0.340432 31.9377 0.101613 31.4463C-0.00281587 31.2315 -0.0270234 30.9856 0.0334616 30.754L3.00998 19.3586C3.10842 18.9818 3.41549 18.6983 3.79479 18.6342L17.2582 16.3583C17.4232 16.3305 17.5595 16.2201 17.6251 16.07L17.6603 15.9507C17.6984 15.7191 17.5716 15.4983 17.3667 15.4116L17.2582 15.38L3.71878 13.0923C3.33932 13.0282 3.03215 12.7446 2.93381 12.3675L0.0327833 1.24551C-0.105414 0.715961 0.20599 0.173099 0.728324 0.032993C0.956647 -0.0282504 1.19912 -0.0036876 1.41097 0.102147Z" fill="#212121"/>
</svg>
