<svg width="60" height="50" viewBox="0 0 60 50" fill="none" xmlns="http://www.w3.org/2000/svg">
<path d="M30 31.25C32.6522 31.25 35.1957 30.372 37.0711 28.8092C38.9464 27.2464 40 25.1268 40 22.9166V12.5C40 10.2898 38.9464 8.17021 37.0711 6.6074C35.1957 5.0446 32.6522 4.16663 30 4.16663C27.3478 4.16663 24.8043 5.0446 22.9289 6.6074C21.0536 8.17021 20 10.2898 20 12.5V22.9166C20 25.1268 21.0536 27.2464 22.9289 28.8092C24.8043 30.372 27.3478 31.25 30 31.25Z" fill="#231F20"/>
<path d="M47.5 22.9167C47.5 22.3642 47.2366 21.8343 46.7678 21.4436C46.2989 21.0529 45.663 20.8334 45 20.8334C44.337 20.8334 43.7011 21.0529 43.2322 21.4436C42.7634 21.8343 42.5 22.3642 42.5 22.9167C42.5 25.6794 41.183 28.3289 38.8388 30.2824C36.4946 32.2359 33.3152 33.3334 30 33.3334C26.6848 33.3334 23.5054 32.2359 21.1612 30.2824C18.817 28.3289 17.5 25.6794 17.5 22.9167C17.5 22.3642 17.2366 21.8343 16.7678 21.4436C16.2989 21.0529 15.663 20.8334 15 20.8334C14.337 20.8334 13.7011 21.0529 13.2322 21.4436C12.7634 21.8343 12.5 22.3642 12.5 22.9167C12.5049 26.4206 14.0235 29.8058 16.778 32.4531C19.5324 35.1004 23.3385 36.8328 27.5 37.3334V41.6667H22.225C21.6349 41.6667 21.069 41.8621 20.6517 42.2098C20.2344 42.5575 20 43.0291 20 43.5209V43.9792C20 44.471 20.2344 44.9426 20.6517 45.2903C21.069 45.638 21.6349 45.8334 22.225 45.8334H37.775C38.3651 45.8334 38.931 45.638 39.3483 45.2903C39.7656 44.9426 40 44.471 40 43.9792V43.5209C40 43.0291 39.7656 42.5575 39.3483 42.2098C38.931 41.8621 38.3651 41.6667 37.775 41.6667H32.5V37.3334C36.6615 36.8328 40.4676 35.1004 43.222 32.4531C45.9765 29.8058 47.4951 26.4206 47.5 22.9167Z" fill="#231F20"/>
</svg>
